<?xml version="1.0" encoding="UTF-8"?>
<!-- Created with Inkscape (http://www.inkscape.org/) -->
<svg width="213.51mm" height="145.8mm" version="1.1" viewBox="0 0 213.51 145.8" xml:space="preserve" xmlns="http://www.w3.org/2000/svg"><defs><linearGradient id="Gradient_1" x1="130.79" x2="779.51" y1="12.603" y2="12.603" gradientUnits="userSpaceOnUse"><stop stop-color="#0C5C35" offset="0"/><stop stop-color="#095833" offset=".125"/><stop stop-color="#065531" offset=".25"/><stop stop-color="#06512F" offset=".375"/><stop stop-color="#064E2E" offset=".5"/><stop stop-color="#064B2C" offset=".625"/><stop stop-color="#06482A" offset=".75"/><stop stop-color="#064528" offset=".875"/><stop stop-color="#064226" offset="1"/></linearGradient><clipPath id="Clip_1"><path d="m779.51 12.603v503.25h-648.72v-503.25z"/></clipPath><clipPath id="Clip_2"><path d="m10.657 12.603h768.86v503.25h-768.86z"/></clipPath><clipPath id="Clip_3"><path d="m663.1 398.64c0 5.187-4.204 9.391-9.391 9.391-5.188 0-9.392-4.204-9.392-9.391 0-5.185 4.204-9.39 9.392-9.39 5.187 0 9.391 4.205 9.391 9.39z"/></clipPath><clipPath id="Clip_4"><path d="m778.22 401.66c0 5.188-4.204 9.393-9.392 9.393-5.187 0-9.391-4.205-9.391-9.393 0-5.185 4.204-9.389 9.391-9.389 5.188 0 9.392 4.204 9.392 9.389z"/></clipPath><clipPath id="clipPath2397"><path d="m14.31 98.795v110.02h178.76v-5.2328c-0.24391 7e-3 -0.48844 0.0119-0.73432 0.0119-10.803 0-19.754-6.8982-21.404-15.924-0.19915-0.0176-0.39064-0.0451-0.57413-0.0827-0.0462 0.36386-0.0964 0.72275-0.15709 1.0697-0.0471-0.37539-0.0825-0.7538-0.11472-1.1328-4.0436-1.0806-3.9371-6.9818 0.23771-6.78 0.73755-4.6894 2.6926-9.1623 6.0415-12.473 2.1884-2.163 7.1089-3.5839 10.105-4.4276 2.1003-0.59171 4.3624-0.57749 6.6001-0.18448v-64.862zm154.93 95.986c1.9204 0.11218 3.5512 3.8689 4.0049 5.5273 4.708-0.44767 1.4226 5.6453 1.8676 6.2342l-0.11162 0.1111c-0.75089 0.48339-1.6258 0.9542-2.5389 1.2082-0.72337-2.4752-3.5228-0.52161-4.3356-3.0711-0.61886-1.9452 1.1466-3.8298 3.0045-3.9026-1.0337-2.2154-3.1307-5.071-1.8908-6.1071z" fill="#ff0" fill-opacity=".29752" stop-color="#000000" style="font-variation-settings:normal"/></clipPath></defs><g transform="translate(-3.9904 -83.15)"><g transform="matrix(.26458 0 0 .26458 3.8306 82.99)"><path d="m0.604 0.601h788.96v527.25h-788.96z" fill="#b79267"/><g fill="#0d5d35"><path d="m10.657 12.603h84.093v503.25h-84.093z"/><path d="m94.75 12.603h36.039v503.25h-36.039z"/></g><g clip-path="url(#Clip_1)"><path d="m130.79 12.603h648.72v503.25h-648.72z" fill="url(#Gradient_1)"/></g><g clip-path="url(#Clip_2)"><path d="m779.51 515.85v-503.25 503.25" fill="#064226"/></g><path d="m39 509.25h41.25v6.602h-41.25z" fill="#e680a9"/><path d="m91.5 509.25h41.25v6.602h-41.25z" fill="#fffffe"/><path d="m196 509.25h41.25v6.602h-41.25z" fill="#fff038"/><path d="m144 509.25h41.25v6.602h-41.25z" fill="#35a0cd"/><path d="m316.75 493.7v19.009c0 1.726-1.413 3.14-3.14 3.14h-60.721c-1.726 0-3.139-1.414-3.139-3.14v-19.009" fill="#04301b"/><path d="m249.75 489.27h67v8.858h-67z" fill="#f1a948"/><path d="m279.93 486.78h6.645v11.35h-6.645z" fill="#1a1919"/><path d="m647.35 466.97c-1.682-2.226 10.736-25.255-7.058-23.563-1.715-6.268-7.879-20.465-15.137-20.889-4.686 3.916 3.239 14.709 7.146 23.082-7.022 0.275-13.695 7.397-11.356 14.749 3.072 9.636 13.654 2.252 16.388 11.607 3.451-0.96 6.757-2.738 9.595-4.565" fill="#f9ce97"/><path d="m666.06 527.05c3.882-111.87 80.671-94.823 77.365 18.239-15.696 0.683-77.365 22.339-77.365-18.239" fill="#1f4e7a"/><path d="m712.66 455.41c-3.183 6.799-14.879 15.603-21.156 20.071-6.316 4.501-10.702 4.949-18.524 4.795 6.31-13.476 25.256-44.334 41.126-22.699" fill="#fffffe"/><g fill="#f9ce97"><path d="m794.4 384.27c0 39.516-36.691 71.549-81.951 71.549-45.265 0-81.957-32.033-81.957-71.549 0-39.514 36.692-71.549 81.957-71.549 45.26 0 81.951 32.035 81.951 71.549"/><path d="m635.92 370.91c-23.939-8.787-25.075 24.427-2.86 24.805"/><path d="m789.51 372.82c32.46-5.226 15.716 48.049-7.631 28.62"/></g><path d="m690.39 409.22c4.537 8.157 16.126 13.522 23.052 6.125-0.701 8.79-2.434 22.082-14.265 20.306-12.488-1.873-9.992-17.793-8.787-26.431" fill="#eb928c"/><path d="m706.69 382.33c-17.365-4.79-17.173 11.801-1.49 11.431" fill-opacity="0" stroke="#da9d52" stroke-linecap="round" stroke-linejoin="round" stroke-width="2.862"/><path d="m672.82 373.72c0 3.017-2.446 5.46-5.461 5.46-3.016 0-5.46-2.443-5.46-5.46 0-3.016 2.444-5.461 5.46-5.461 3.015 0 5.461 2.445 5.461 5.461z" fill="#2d2118"/><path d="m672.82 373.72c0 3.017-2.446 5.46-5.461 5.46-3.016 0-5.46-2.443-5.46-5.46 0-3.016 2.444-5.461 5.46-5.461 3.015 0 5.461 2.445 5.461 5.461z" fill-opacity="0" stroke="#2d2118" stroke-linecap="round" stroke-linejoin="round" stroke-width="1.901"/><path d="m749.56 377.64c0 3.017-2.447 5.461-5.457 5.461-3.021 0-5.464-2.444-5.464-5.461s2.443-5.46 5.464-5.46c3.01 0 5.457 2.443 5.457 5.46z" fill="#2d2118"/><path d="m749.56 377.64c0 3.017-2.447 5.461-5.457 5.461-3.021 0-5.464-2.444-5.464-5.461s2.443-5.46 5.464-5.46c3.01 0 5.457 2.443 5.457 5.46z" fill-opacity="0" stroke="#2d2118" stroke-linecap="round" stroke-linejoin="round" stroke-width="1.901"/><g clip-path="url(#Clip_3)"><path d="m644.32 389.25h18.78v18.779h-18.78z" fill="#f9ce97"/><path d="m663.1 398.64c0 5.187-4.204 9.39-9.391 9.39-5.184 0-9.391-4.203-9.391-9.39 0-5.184 4.207-9.391 9.391-9.391 5.187 0 9.391 4.207 9.391 9.391" fill="#f9ce97"/><path d="m662.98 398.64c0 5.121-4.152 9.273-9.273 9.273-5.117 0-9.27-4.152-9.27-9.273 0-5.118 4.153-9.27 9.27-9.27 5.121 0 9.273 4.152 9.273 9.27" fill="#f8ce97"/><path d="m662.86 398.64c0 5.054-4.097 9.152-9.152 9.152-5.051 0-9.149-4.098-9.149-9.152 0-5.051 4.098-9.149 9.149-9.149 5.055 0 9.152 4.098 9.152 9.149" fill="#f8cd97"/><path d="m662.74 398.64c0 4.988-4.043 9.031-9.031 9.031-4.984 0-9.027-4.043-9.027-9.031 0-4.985 4.043-9.028 9.027-9.028 4.988 0 9.031 4.043 9.031 9.028" fill="#f8cc97"/><path d="m662.62 398.64c0 4.922-3.988 8.91-8.91 8.91-4.918 0-8.906-3.988-8.906-8.91 0-4.918 3.988-8.907 8.906-8.907 4.922 0 8.91 3.989 8.91 8.907" fill="#f8cb97"/><path d="m662.5 398.64c0 4.855-3.934 8.789-8.789 8.789-4.852 0-8.785-3.934-8.785-8.789 0-4.852 3.933-8.785 8.785-8.785 4.855 0 8.789 3.933 8.789 8.785" fill="#f8cb97"/><path d="m662.38 398.64c0 4.789-3.879 8.668-8.668 8.668-4.785 0-8.664-3.879-8.664-8.668 0-4.785 3.879-8.664 8.664-8.664 4.789 0 8.668 3.879 8.668 8.664" fill="#f7ca97"/><path d="m662.26 398.64c0 4.722-3.824 8.546-8.547 8.546-4.719 0-8.547-3.824-8.547-8.546 0-4.719 3.828-8.547 8.547-8.547 4.723 0 8.547 3.828 8.547 8.547" fill="#f7c997"/><path d="m662.14 398.64c0 4.656-3.774 8.429-8.43 8.429-4.652 0-8.422-3.773-8.422-8.429 0-4.653 3.77-8.422 8.422-8.422 4.656 0 8.43 3.769 8.43 8.422" fill="#f7c897"/><path d="m662.02 398.64c0 4.59-3.718 8.308-8.308 8.308-4.586 0-8.305-3.718-8.305-8.308 0-4.586 3.719-8.305 8.305-8.305 4.59 0 8.308 3.719 8.308 8.305" fill="#f7c896"/><path d="m661.9 398.64c0 4.523-3.664 8.187-8.187 8.187-4.52 0-8.184-3.664-8.184-8.187 0-4.52 3.664-8.184 8.184-8.184 4.523 0 8.187 3.664 8.187 8.184" fill="#f7c796"/><path d="m661.78 398.64c0 4.457-3.609 8.066-8.066 8.066-4.453 0-8.063-3.609-8.063-8.066 0-4.453 3.61-8.063 8.063-8.063 4.457 0 8.066 3.61 8.066 8.063" fill="#f6c696"/><path d="m661.66 398.64c0 4.39-3.554 7.945-7.945 7.945-4.383 0-7.942-3.555-7.942-7.945 0-4.383 3.559-7.942 7.942-7.942 4.391 0 7.945 3.559 7.945 7.942" fill="#f6c696"/><path d="m661.54 398.64c0 4.32-3.504 7.824-7.824 7.824s-7.82-3.504-7.82-7.824c0-4.321 3.5-7.821 7.82-7.821s7.824 3.5 7.824 7.821" fill="#f6c596"/><path d="m661.41 398.64c0 4.257-3.445 7.703-7.703 7.703-4.25 0-7.699-3.446-7.699-7.703 0-4.25 3.449-7.7 7.699-7.7 4.258 0 7.703 3.45 7.703 7.7" fill="#f6c496"/><path d="m661.3 398.64c0 4.187-3.399 7.586-7.586 7.586-4.188 0-7.578-3.399-7.578-7.586 0-4.188 3.39-7.579 7.578-7.579 4.187 0 7.586 3.391 7.586 7.579" fill="#f6c396"/><path d="m661.17 398.64c0 4.125-3.336 7.461-7.461 7.461-4.117 0-7.461-3.336-7.461-7.461 0-4.118 3.344-7.461 7.461-7.461 4.125 0 7.461 3.343 7.461 7.461" fill="#f5c396"/><path d="m661.06 398.64c0 4.054-3.289 7.343-7.344 7.343-4.051 0-7.34-3.289-7.34-7.343 0-4.051 3.289-7.34 7.34-7.34 4.055 0 7.344 3.289 7.344 7.34" fill="#f5c296"/><path d="m660.93 398.64c0 3.988-3.235 7.222-7.223 7.222-3.984 0-7.219-3.234-7.219-7.222 0-3.985 3.235-7.219 7.219-7.219 3.988 0 7.223 3.234 7.223 7.219" fill="#f5c196"/><path d="m660.81 398.64c0 3.921-3.18 7.101-7.102 7.101-3.918 0-7.098-3.18-7.098-7.101 0-3.918 3.18-7.098 7.098-7.098 3.922 0 7.102 3.18 7.102 7.098" fill="#f5c096"/><path d="m660.69 398.64c0 3.855-3.125 6.98-6.98 6.98-3.852 0-6.977-3.125-6.977-6.98 0-3.852 3.125-6.977 6.977-6.977 3.855 0 6.98 3.125 6.98 6.977" fill="#f5bf96"/><path d="m660.57 398.64c0 3.789-3.07 6.859-6.859 6.859-3.785 0-6.855-3.07-6.855-6.859 0-3.785 3.07-6.856 6.855-6.856 3.789 0 6.859 3.071 6.859 6.856" fill="#f5be96"/><path d="m660.45 398.64c0 3.722-3.015 6.738-6.738 6.738-3.719 0-6.734-3.016-6.734-6.738 0-3.719 3.015-6.735 6.734-6.735 3.723 0 6.738 3.016 6.738 6.735" fill="#f4be96"/><path d="m660.33 398.64c0 3.656-2.961 6.617-6.617 6.617-3.652 0-6.617-2.961-6.617-6.617 0-3.653 2.965-6.618 6.617-6.618 3.656 0 6.617 2.965 6.617 6.618" fill="#f4bd95"/><path d="m660.21 398.64c0 3.59-2.91 6.5-6.5 6.5-3.586 0-6.492-2.91-6.492-6.5 0-3.586 2.906-6.493 6.492-6.493 3.59 0 6.5 2.907 6.5 6.493" fill="#f4bc95"/><path d="m660.09 398.64c0 3.523-2.856 6.378-6.379 6.378-3.52 0-6.375-2.855-6.375-6.378 0-3.52 2.855-6.375 6.375-6.375 3.523 0 6.379 2.855 6.379 6.375" fill="#f4bb95"/><path d="m659.97 398.64c0 3.457-2.801 6.257-6.258 6.257-3.453 0-6.254-2.8-6.254-6.257 0-3.454 2.801-6.254 6.254-6.254 3.457 0 6.258 2.8 6.258 6.254" fill="#f4ba95"/><path d="m659.85 398.64c0 3.39-2.746 6.136-6.137 6.136-3.387 0-6.133-2.746-6.133-6.136 0-3.387 2.746-6.133 6.133-6.133 3.391 0 6.137 2.746 6.137 6.133" fill="#f4b995"/><path d="m659.73 398.64c0 3.324-2.692 6.015-6.016 6.015-3.32 0-6.012-2.691-6.012-6.015 0-3.321 2.692-6.012 6.012-6.012 3.324 0 6.016 2.691 6.016 6.012" fill="#f3b995"/><path d="m659.61 398.64c0 3.257-2.637 5.894-5.895 5.894-3.254 0-5.891-2.637-5.891-5.894 0-3.254 2.637-5.891 5.891-5.891 3.258 0 5.895 2.637 5.895 5.891" fill="#f3b895"/><path d="m659.48 398.64c0 3.191-2.582 5.773-5.773 5.773-3.188 0-5.774-2.582-5.774-5.773 0-3.188 2.586-5.774 5.774-5.774 3.191 0 5.773 2.586 5.773 5.774" fill="#f3b795"/><path d="m659.37 398.64c0 3.125-2.531 5.656-5.656 5.656-3.121 0-5.649-2.531-5.649-5.656 0-3.122 2.528-5.649 5.649-5.649 3.125 0 5.656 2.527 5.656 5.649" fill="#f3b695"/><path d="m659.25 398.64c0 3.054-2.48 5.535-5.535 5.535s-5.531-2.481-5.531-5.535c0-3.055 2.476-5.532 5.531-5.532s5.535 2.477 5.535 5.532" fill="#f3b595"/><path d="m659.12 398.64c0 2.992-2.422 5.414-5.414 5.414-2.984 0-5.41-2.422-5.41-5.414 0-2.985 2.426-5.41 5.41-5.41 2.992 0 5.414 2.425 5.414 5.41" fill="#f2b495"/><path d="m659 398.64c0 2.921-2.371 5.293-5.293 5.293s-5.289-2.372-5.289-5.293c0-2.922 2.367-5.289 5.289-5.289s5.293 2.367 5.293 5.289" fill="#f2b495"/><path d="m658.88 398.64c0 2.859-2.313 5.171-5.172 5.171-2.852 0-5.168-2.312-5.168-5.171 0-2.852 2.316-5.168 5.168-5.168 2.859 0 5.172 2.316 5.172 5.168" fill="#f2b394"/><path d="m658.76 398.64c0 2.789-2.262 5.05-5.051 5.05s-5.047-2.261-5.047-5.05 2.258-5.047 5.047-5.047 5.051 2.258 5.051 5.047" fill="#f2b294"/><path d="m658.64 398.64c0 2.726-2.204 4.929-4.93 4.929-2.719 0-4.926-2.203-4.926-4.929 0-2.719 2.207-4.926 4.926-4.926 2.726 0 4.93 2.207 4.93 4.926" fill="#f2b194"/><path d="m658.52 398.64c0 2.656-2.156 4.812-4.812 4.812-2.652 0-4.805-2.156-4.805-4.812 0-2.653 2.153-4.805 4.805-4.805 2.656 0 4.812 2.152 4.812 4.805" fill="#f1b094"/><path d="m658.4 398.64c0 2.59-2.097 4.687-4.687 4.687-2.586 0-4.688-2.097-4.688-4.687 0-2.586 2.102-4.688 4.688-4.688 2.59 0 4.687 2.102 4.687 4.688" fill="#f1b094"/><path d="m658.28 398.64c0 2.523-2.047 4.57-4.57 4.57-2.52 0-4.567-2.047-4.567-4.57 0-2.52 2.047-4.567 4.567-4.567 2.523 0 4.57 2.047 4.57 4.567" fill="#f1af94"/><path d="m658.16 398.64c0 2.457-1.992 4.449-4.449 4.449-2.453 0-4.445-1.992-4.445-4.449 0-2.454 1.992-4.446 4.445-4.446 2.457 0 4.449 1.992 4.449 4.446" fill="#f1ae94"/><path d="m658.04 398.64c0 2.39-1.937 4.328-4.328 4.328-2.387 0-4.324-1.938-4.324-4.328 0-2.387 1.937-4.325 4.324-4.325 2.391 0 4.328 1.938 4.328 4.325" fill="#f1ad94"/><path d="m657.92 398.64c0 2.324-1.883 4.207-4.207 4.207-2.32 0-4.203-1.883-4.203-4.207 0-2.321 1.883-4.204 4.203-4.204 2.324 0 4.207 1.883 4.207 4.204" fill="#f0ac94"/><path d="m657.8 398.64c0 2.257-1.828 4.086-4.086 4.086-2.254 0-4.082-1.829-4.082-4.086 0-2.254 1.828-4.082 4.082-4.082 2.258 0 4.086 1.828 4.086 4.082" fill="#f0ab94"/><path d="m657.68 398.64c0 2.191-1.774 3.965-3.965 3.965-2.188 0-3.961-1.774-3.961-3.965 0-2.188 1.773-3.961 3.961-3.961 2.191 0 3.965 1.773 3.965 3.961" fill="#f0ab94"/><path d="m657.56 398.64c0 2.125-1.719 3.843-3.844 3.843-2.121 0-3.844-1.718-3.844-3.843 0-2.121 1.723-3.844 3.844-3.844 2.125 0 3.844 1.723 3.844 3.844" fill="#f0aa93"/><path d="m657.44 398.64c0 2.058-1.668 3.726-3.726 3.726-2.055 0-3.719-1.668-3.719-3.726 0-2.055 1.664-3.719 3.719-3.719 2.058 0 3.726 1.664 3.726 3.719" fill="#efa993"/><path d="m657.32 398.64c0 1.992-1.613 3.605-3.605 3.605-1.988 0-3.602-1.613-3.602-3.605 0-1.989 1.614-3.602 3.602-3.602 1.992 0 3.605 1.613 3.605 3.602" fill="#efa893"/></g><g clip-path="url(#Clip_4)"><path d="m759.43 392.27h18.781v18.781h-18.781z" fill="#f9ce97"/><path d="m778.22 401.66c0 5.188-4.203 9.391-9.391 9.391-5.187 0-9.39-4.203-9.39-9.391 0-5.187 4.203-9.391 9.39-9.391 5.188 0 9.391 4.204 9.391 9.391" fill="#f9ce97"/><path d="m778.09 401.66c0 5.121-4.149 9.27-9.27 9.27s-9.269-4.149-9.269-9.27 4.148-9.269 9.269-9.269 9.27 4.148 9.27 9.269" fill="#f8ce97"/><path d="m777.98 401.66c0 5.055-4.098 9.149-9.153 9.149s-9.152-4.094-9.152-9.149 4.097-9.148 9.152-9.148 9.153 4.093 9.153 9.148" fill="#f8cd97"/><path d="m777.85 401.66c0 4.984-4.04 9.031-9.028 9.031s-9.027-4.047-9.027-9.031 4.039-9.031 9.027-9.031 9.028 4.047 9.028 9.031" fill="#f8cc97"/><path d="m777.73 401.66c0 4.922-3.992 8.91-8.91 8.91s-8.91-3.988-8.91-8.91 3.992-8.91 8.91-8.91 8.91 3.988 8.91 8.91" fill="#f8cb97"/><path d="m777.61 401.66c0 4.852-3.933 8.789-8.789 8.789-4.855 0-8.789-3.937-8.789-8.789 0-4.851 3.934-8.789 8.789-8.789 4.856 0 8.789 3.938 8.789 8.789" fill="#f8cb97"/><path d="m777.49 401.66c0 4.789-3.883 8.668-8.668 8.668s-8.668-3.879-8.668-8.668 3.883-8.668 8.668-8.668 8.668 3.879 8.668 8.668" fill="#f7ca97"/><path d="m777.37 401.66c0 4.719-3.824 8.547-8.547 8.547-4.722 0-8.547-3.828-8.547-8.547s3.825-8.547 8.547-8.547c4.723 0 8.547 3.828 8.547 8.547" fill="#f7c997"/><path d="m777.25 401.66c0 4.652-3.773 8.426-8.426 8.426-4.652 0-8.426-3.774-8.426-8.426s3.774-8.426 8.426-8.426c4.653 0 8.426 3.774 8.426 8.426" fill="#f7c897"/><path d="m777.13 401.66c0 4.586-3.719 8.305-8.305 8.305s-8.305-3.719-8.305-8.305 3.719-8.305 8.305-8.305 8.305 3.719 8.305 8.305" fill="#f7c896"/><path d="m777.01 401.66c0 4.52-3.664 8.188-8.184 8.188-4.519 0-8.183-3.668-8.183-8.188s3.664-8.187 8.183-8.187c4.52 0 8.184 3.667 8.184 8.187" fill="#f7c796"/><path d="m776.89 401.66c0 4.453-3.614 8.063-8.067 8.063s-8.066-3.61-8.066-8.063 3.613-8.062 8.066-8.062 8.067 3.609 8.067 8.062" fill="#f6c696"/><path d="m776.77 401.66c0 4.387-3.558 7.945-7.945 7.945s-7.945-3.558-7.945-7.945 3.558-7.945 7.945-7.945 7.945 3.558 7.945 7.945" fill="#f6c696"/><path d="m776.65 401.66c0 4.32-3.504 7.824-7.824 7.824s-7.824-3.504-7.824-7.824 3.504-7.824 7.824-7.824 7.824 3.504 7.824 7.824" fill="#f6c596"/><path d="m776.53 401.66c0 4.254-3.449 7.703-7.703 7.703s-7.703-3.449-7.703-7.703 3.449-7.703 7.703-7.703 7.703 3.449 7.703 7.703" fill="#f6c496"/><path d="m776.41 401.66c0 4.188-3.394 7.582-7.582 7.582-4.187 0-7.582-3.394-7.582-7.582 0-4.187 3.395-7.582 7.582-7.582 4.188 0 7.582 3.395 7.582 7.582" fill="#f6c396"/><path d="m776.28 401.66c0 4.121-3.34 7.461-7.461 7.461s-7.461-3.34-7.461-7.461 3.34-7.461 7.461-7.461 7.461 3.34 7.461 7.461" fill="#f5c396"/><path d="m776.16 401.66c0 4.055-3.285 7.34-7.34 7.34s-7.34-3.285-7.34-7.34 3.285-7.34 7.34-7.34 7.34 3.285 7.34 7.34" fill="#f5c296"/><path d="m776.05 401.66c0 3.988-3.234 7.219-7.223 7.219-3.988 0-7.222-3.231-7.222-7.219s3.234-7.219 7.222-7.219c3.989 0 7.223 3.231 7.223 7.219" fill="#f5c196"/><path d="m775.92 401.66c0 3.922-3.176 7.102-7.098 7.102s-7.097-3.18-7.097-7.102 3.175-7.101 7.097-7.101 7.098 3.179 7.098 7.101" fill="#f5c096"/><path d="m775.8 401.66c0 3.856-3.125 6.98-6.981 6.98-3.855 0-6.98-3.124-6.98-6.98 0-3.855 3.125-6.98 6.98-6.98 3.856 0 6.981 3.125 6.981 6.98" fill="#f5bf96"/><path d="m775.68 401.66c0 3.789-3.071 6.859-6.86 6.859s-6.859-3.07-6.859-6.859 3.07-6.859 6.859-6.859 6.86 3.07 6.86 6.859" fill="#f5be96"/><path d="m775.56 401.66c0 3.723-3.016 6.738-6.739 6.738-3.722 0-6.738-3.015-6.738-6.738s3.016-6.738 6.738-6.738c3.723 0 6.739 3.015 6.739 6.738" fill="#f4be96"/><path d="m775.44 401.66c0 3.656-2.964 6.617-6.617 6.617-3.652 0-6.617-2.961-6.617-6.617s2.965-6.617 6.617-6.617c3.653 0 6.617 2.961 6.617 6.617" fill="#f4bd95"/><path d="m775.32 401.66c0 3.586-2.906 6.496-6.496 6.496s-6.496-2.91-6.496-6.496 2.906-6.496 6.496-6.496 6.496 2.91 6.496 6.496" fill="#f4bc95"/><path d="m775.2 401.66c0 3.524-2.855 6.375-6.375 6.375-3.519 0-6.375-2.851-6.375-6.375 0-3.523 2.856-6.375 6.375-6.375 3.52 0 6.375 2.852 6.375 6.375" fill="#f4bb95"/><path d="m775.08 401.66c0 3.453-2.797 6.258-6.254 6.258s-6.254-2.805-6.254-6.258 2.797-6.258 6.254-6.258 6.254 2.805 6.254 6.258" fill="#f4ba95"/><path d="m774.96 401.66c0 3.391-2.75 6.133-6.137 6.133s-6.137-2.742-6.137-6.133 2.75-6.133 6.137-6.133 6.137 2.742 6.137 6.133" fill="#f4b995"/><path d="m774.84 401.66c0 3.32-2.696 6.016-6.016 6.016s-6.015-2.696-6.015-6.016 2.695-6.016 6.015-6.016 6.016 2.696 6.016 6.016" fill="#f3b995"/><path d="m774.72 401.66c0 3.254-2.641 5.895-5.895 5.895s-5.894-2.641-5.894-5.895 2.64-5.894 5.894-5.894 5.895 2.64 5.895 5.894" fill="#f3b895"/><path d="m774.6 401.66c0 3.188-2.586 5.774-5.774 5.774-3.187 0-5.773-2.586-5.773-5.774 0-3.187 2.586-5.773 5.773-5.773 3.188 0 5.774 2.586 5.774 5.773" fill="#f3b795"/><path d="m774.48 401.66c0 3.121-2.532 5.652-5.653 5.652s-5.652-2.531-5.652-5.652 2.531-5.652 5.652-5.652 5.653 2.531 5.653 5.652" fill="#f3b695"/><path d="m774.36 401.66c0 3.055-2.477 5.531-5.532 5.531s-5.531-2.476-5.531-5.531 2.476-5.531 5.531-5.531 5.532 2.476 5.532 5.531" fill="#f3b595"/><path d="m774.23 401.66c0 2.988-2.422 5.41-5.41 5.41s-5.41-2.422-5.41-5.41 2.422-5.41 5.41-5.41 5.41 2.422 5.41 5.41" fill="#f2b495"/><path d="m774.12 401.66c0 2.922-2.371 5.289-5.293 5.289s-5.293-2.367-5.293-5.289 2.371-5.289 5.293-5.289 5.293 2.367 5.293 5.289" fill="#f2b495"/><path d="m773.99 401.66c0 2.855-2.312 5.172-5.168 5.172-2.855 0-5.168-2.317-5.168-5.172s2.313-5.172 5.168-5.172c2.856 0 5.168 2.317 5.168 5.172" fill="#f2b394"/><path d="m773.88 401.66c0 2.789-2.262 5.051-5.051 5.051s-5.051-2.262-5.051-5.051 2.262-5.051 5.051-5.051 5.051 2.262 5.051 5.051" fill="#f2b294"/><path d="m773.75 401.66c0 2.723-2.207 4.93-4.93 4.93-2.722 0-4.93-2.207-4.93-4.93s2.208-4.93 4.93-4.93c2.723 0 4.93 2.207 4.93 4.93" fill="#f2b194"/><path d="m773.63 401.66c0 2.656-2.152 4.809-4.809 4.809-2.656 0-4.808-2.153-4.808-4.809s2.152-4.808 4.808-4.808c2.657 0 4.809 2.152 4.809 4.808" fill="#f1b094"/><path d="m773.51 401.66c0 2.59-2.098 4.688-4.688 4.688s-4.687-2.098-4.687-4.688 2.097-4.687 4.687-4.687 4.688 2.097 4.688 4.687" fill="#f1b094"/><path d="m773.39 401.66c0 2.523-2.043 4.567-4.567 4.567-2.523 0-4.566-2.044-4.566-4.567s2.043-4.566 4.566-4.566c2.524 0 4.567 2.043 4.567 4.566" fill="#f1af94"/><path d="m773.27 401.66c0 2.457-1.992 4.445-4.449 4.445s-4.449-1.988-4.449-4.445 1.992-4.445 4.449-4.445 4.449 1.988 4.449 4.445" fill="#f1ae94"/><path d="m773.15 401.66c0 2.391-1.933 4.328-4.324 4.328-2.39 0-4.324-1.937-4.324-4.328s1.934-4.328 4.324-4.328c2.391 0 4.324 1.937 4.324 4.328" fill="#f1ad94"/><path d="m773.03 401.66c0 2.32-1.883 4.207-4.207 4.207s-4.207-1.887-4.207-4.207 1.883-4.207 4.207-4.207 4.207 1.887 4.207 4.207" fill="#f0ac94"/><path d="m772.91 401.66c0 2.258-1.832 4.086-4.086 4.086s-4.086-1.828-4.086-4.086 1.832-4.086 4.086-4.086 4.086 1.828 4.086 4.086" fill="#f0ab94"/><path d="m772.79 401.66c0 2.188-1.773 3.965-3.965 3.965-2.191 0-3.965-1.777-3.965-3.965 0-2.187 1.774-3.965 3.965-3.965 2.192 0 3.965 1.778 3.965 3.965" fill="#f0ab94"/><path d="m772.67 401.66c0 2.125-1.723 3.844-3.844 3.844s-3.843-1.719-3.843-3.844 1.722-3.844 3.843-3.844 3.844 1.719 3.844 3.844" fill="#f0aa93"/><path d="m772.55 401.66c0 2.055-1.664 3.723-3.723 3.723-2.058 0-3.722-1.668-3.722-3.723s1.664-3.723 3.722-3.723c2.059 0 3.723 1.668 3.723 3.723" fill="#efa993"/><path d="m772.43 401.66c0 1.988-1.614 3.602-3.602 3.602s-3.601-1.614-3.601-3.602 1.613-3.601 3.601-3.601 3.602 1.613 3.602 3.601" fill="#efa893"/></g><path d="m785.95 405.42c11.292-22.112 9.789-59.542-7.19-77.552-2.246-4.718-1.42-6.329 7.115-11.534-3.549-1.738-31.531-4.346-31.52 3.017-0.011-7.23-4.547-13.619-6.361-20.097 1.068 3.813-0.686 13.099-1.163 17.193-16.227-8.879-38.051-16.075-56.551-10.863-11.325 3.189-29.922 8.559-38.193 16.734-19.742 19.518-26.733 49.708-23.299 77.048 1.991-11.372 1.253-25.581 8.608-35.172 8.496-11.083 22.843-17.899 31.871-29.351-6.359 8.068-15.365 16.734-19.053 26.398 12.967-3.065 35.171-17.68 44.78-30.094-5.166 7.357-11.109 13.825-16.144 21.251 12.265-1.8 31.379-13.26 38.757-23.604-4.213 10.023-12.675 17.993-19.542 26.026 9.444-0.93 18.14-4.618 26.435-9.033 12.961-6.904 24.802-21.643 35.675-3.94 5.785 9.424 6.474 23.722 4.686 34.391 4.857-8.524 6.832-18.892 7.856-28.941 5.138 5.383 9.475 11.208 10.811 19.426 2.219 13.626-0.898 28.443 0.641 41.988 0.097-0.161 0.176-0.345 0.273-0.506-0.604 2.12-1.007 4.291-1.017 6.576 1.117-2.999 1.93-6.143 2.525-9.361" fill="#4b3110"/><path d="m693.54 461.36 4.001 7.801" fill-opacity="0" stroke="#1a1919" stroke-width="1.145"/><path d="m692.16 453.96c6.432 4.711-0.768 14.21-6.787 11.199-5.573-2.79 0.434-14.758 7.506-10.476" fill="#675e50"/><path d="m686.15 464.42c-1.551 6.401-5.649 10.447-8.684 15.851-1.008 0.024-3.479-0.012-4.492 5e-3 1.183-5.364 2.895-11.521 10.972-18.114" fill="#675e50"/><path d="m713.69 456.49c1.688 2.24 7.467 9.521 5.722 12.203-1.427 2.194-14.779 1.418-17.787 1.709 0.717 0.863 1.303 3.111 2.065 3.992-7.759 1.05-23.652 12.278-30.655 5.646 17.099-3.318 25.78-13.501 38.458-24.647" fill="#10304f"/><path d="m663.08 360.22c-0.544-4.275 4.531-5.244 6.814-2.096m77.043 1.048c2.607-3.575 7.145-0.673 6.553 3.407" fill-opacity="0" stroke="#2d2118" stroke-width="1.554"/><path d="m709.08 483.63c-8.742 2.239-23.937 14.931-32.399 11.241-9.303-4.055-21.399-27.725-25.663-36.843-4.092 0.984-19.691 8.762-20.444 13.868-0.937 6.362 18.437 27.159 23.597 32.531 7.898 8.222 15.884 14.513 27.54 14.105 9.949-0.349 24.17-4.849 32.826-9.284" fill="#1f4e7a"/><path d="m668.83 514.71c13.468 11.399 36.398-0.51 49.974-5.163-6.468 6.036-56.652 27.693-51.233 6.423" fill="#173a5d"/></g><g clip-path="url(#clipPath2397)" fill="#fff"><g stop-color="#000000" aria-label="&lt;table&gt;😎&lt;/table&gt;"><path d="m35.514 186.13v2.3408l-6.5238 3.155 6.5136 3.155 0.01018 2.3306-9.0274-4.4984v-1.9948z" stop-color="#000000"/><path d="m38.16 185.6 1.9134-0.1832v2.8599h1.9643v1.7098h-1.9643v4.5392q0 1.2009 0.06106 1.5979 0.06106 0.38675 0.36639 0.64119 0.30532 0.24426 1.0177 0.24426 0.37657 0 0.85491-0.0713v1.6895q-0.85491 0.18319-1.5877 0.18319-1.1908 0-1.8218-0.45799-0.631-0.46816-0.80402-1.262-0.17302-0.79385-0.17302-2.4222v-4.6816h-1.3333v-1.7098h1.3943z" stop-color="#000000"/><path d="m45.742 191.19-2.0457-0.25444q0.20355-1.374 1.262-2.1373 1.0686-0.76331 2.6156-0.76331 1.3841 0 2.2085 0.55976 0.83455 0.54959 1.0483 1.3129 0.21373 0.76331 0.21373 2.3103v3.501q0 2.1271 0.1832 2.8395h-2.005q-0.13231-0.55976-0.13231-1.7098-0.96686 1.9642-2.8904 1.9642-1.3027 0-2.0966-0.79384-0.78367-0.80402-0.78367-2.178 0-1.6793 1.1501-2.6563 1.1602-0.97704 4.0099-0.97704 0.14248 0 0.44781 0.0102v-0.41728q0-1.0992-0.33586-1.6589-0.32568-0.55976-1.1806-0.55976-1.3943 0-1.6691 1.608zm3.1856 2.3612q-0.4071-0.0407-0.62083-0.0407-2.7683 0-2.7683 2.1678 0 1.5775 1.374 1.5775 0.80402 0 1.4045-0.85491 0.61065-0.85491 0.61065-2.351z" stop-color="#000000"/><path d="m53.416 184.66h2.1067v4.7936q0.9058-1.3638 2.3917-1.3638 1.608 0 2.5342 1.374 0.93633 1.3638 0.93633 3.6842 0 5.618-3.8064 5.618-1.7912 0-2.4935-1.608-0.23408 0.58012-0.46816 1.3943h-1.2009zm2.1067 9.5465q0 2.9616 1.8116 2.9616 0.93633 0 1.3638-0.89562 0.42746-0.89562 0.42746-3.0024 0-2.0253-0.42746-2.8192-0.42745-0.80402-1.3231-0.80402-0.78367 0-1.3231 0.71242-0.52923 0.71243-0.52923 1.9236z" stop-color="#000000"/><path d="m63.369 184.66h2.1271v13.892h-2.1271z" stop-color="#000000"/><path d="m75.46 193.73h-5.8113q0 2.0864 0.55976 2.7886 0.56994 0.69207 1.4248 0.69207 1.4248 0 1.8014-1.9236l1.9337 0.25444q-0.76331 3.267-3.8064 3.267-1.8625 0-2.9718-1.3332-1.1093-1.3332-1.1093-3.9082 0-2.6461 1.1195-4.0914 1.1195-1.4452 2.9922-1.4452 1.3129 0 2.2085 0.7226t1.262 1.9032q0.36639 1.1704 0.39692 3.0736zm-2.1678-1.435q0-2.7174-1.7709-2.7174-1.6589 0-1.8218 2.7174z" stop-color="#000000"/><path d="m76.987 197.11v-2.3408l6.5339-3.155-6.5238-3.1652-0.01018-2.3205 9.0274 4.4984v1.9948z" stop-color="#000000"/><path d="m112.63 184.65v1.4656q0 0.14249-0.0611 0.27479-0.0509 0.13231-0.15267 0.24426-0.10177 0.10178-0.23408 0.17302-0.12213 0.0611-0.26461 0.0611-0.0407 0-0.0712 0-0.0305-0.0102-0.0712-0.0204 0.42746 1.0483 0.64118 2.1576 0.21373 1.0992 0.21373 2.2289 0 1.6182-0.41728 3.1143-0.41727 1.4961-1.1806 2.7988-0.76331 1.2925-1.8319 2.3612-1.0686 1.0686-2.3714 1.832-1.2925 0.76331-2.7886 1.1806-1.4961 0.41727-3.1143 0.41727-1.6182 0-3.1143-0.41727-1.4961-0.41728-2.7988-1.1806-1.2925-0.76331-2.3612-1.832-1.0686-1.0686-1.8319-2.3612-0.76331-1.3027-1.1806-2.7988t-0.41728-3.1143q0-1.1297 0.21373-2.2289 0.21373-1.1094 0.64118-2.1576h-0.05089q-0.32568 0-0.56994-0.18319-0.23408-0.19338-0.23408-0.54959v-1.4656h2.0253q0.82438-1.2009 1.893-2.1474 1.0686-0.9465 2.3103-1.608 1.2518-0.66154 2.636-1.0076 1.3841-0.35621 2.8395-0.35621 1.4554 0 2.8395 0.35621 1.3841 0.34603 2.6258 1.0076 1.2518 0.66154 2.3205 1.608 1.0686 0.94651 1.893 2.1474zm-11.704 16.823q1.4147 0 2.7174-0.36639 1.3129-0.36638 2.4528-1.0381 1.1399-0.66154 2.066-1.5877 0.93633-0.93633 1.5979-2.0762 0.67171-1.1399 1.0381-2.4426 0.36639-1.3129 0.36639-2.7276 0-1.0686-0.2239-2.1067-0.21373-1.0381-0.64119-2.0151l-1.3129 2.5749q-0.11195 0.22391-0.26462 0.4987-0.14248 0.26461-0.32568 0.49869-0.18319 0.23409-0.4071 0.39693-0.21372 0.15266-0.47834 0.15266h-3.6639q-0.30533 0-0.56994-0.11195-0.26462-0.12213-0.46817-0.31551-0.19337-0.20355-0.30532-0.46816t-0.11195-0.56994v-0.73278q0-0.30532-0.12213-0.56994-0.11196-0.26461-0.31551-0.45799-0.19337-0.20355-0.45798-0.3155-0.26462-0.11195-0.56994-0.11195-0.30533 0-0.56994 0.11195-0.26462 0.11195-0.46817 0.3155-0.19337 0.19338-0.3155 0.45799-0.11195 0.26462-0.11195 0.56994v0.73278q0 0.30533-0.12213 0.58012-0.11195 0.26461-0.3155 0.46816-0.19337 0.19337-0.45799 0.30533-0.26462 0.11195-0.56994 0.11195h-3.6537q-0.0916 0-0.20355-0.0814-0.11195-0.0916-0.21373-0.21373t-0.19337-0.24426q-0.08142-0.12213-0.12213-0.19337-0.19337-0.29515-0.36639-0.59029-0.17302-0.30533-0.34603-0.60048-0.32568-0.56994-0.67172-1.1195-0.33586-0.54958-0.66154-1.1094-0.43763 0.98722-0.66154 2.0355-0.21373 1.0381-0.21373 2.1169 0 1.4147 0.36639 2.7276 0.36639 1.3027 1.0279 2.4426 0.67172 1.1399 1.5979 2.0762 0.93633 0.92615 2.0762 1.5877 1.1399 0.67172 2.4426 1.0381 1.3129 0.36639 2.7276 0.36639zm0-20.477q-1.1399 0-2.2289 0.24426-1.089 0.24426-2.0966 0.71243-0.99739 0.46816-1.893 1.15-0.89562 0.6819-1.6284 1.547h5.6383l0.73278 0.73278h2.9515l0.7226-0.73278h5.6485q-0.73278-0.86508-1.6284-1.547-0.89562-0.68189-1.9032-1.15-0.99739-0.46817-2.0864-0.71243t-2.2289-0.24426zm4.3763 12.875q0.29514 0 0.50887 0.2239 0.22391 0.21373 0.22391 0.50888 0 0.11195-0.0305 0.19337-0.0203 0.0814-0.0712 0.1832-0.34603 0.65135-0.90579 1.1806-0.54959 0.51906-1.2213 0.89562-0.67172 0.36639-1.4147 0.56994-0.74296 0.19338-1.4656 0.19338-0.72261 0-1.4656-0.19338-0.74296-0.20355-1.4248-0.56994-0.67171-0.37656-1.2315-0.89562-0.54958-0.52923-0.89562-1.1806-0.05089-0.10178-0.08142-0.1832-0.02035-0.0814-0.02035-0.19337 0-0.29515 0.21373-0.50888 0.21373-0.2239 0.50888-0.2239 0.2239 0 0.35621 0.10177 0.13231 0.0916 0.27479 0.25444 0.14248 0.17302 0.26462 0.35621 0.12213 0.1832 0.26462 0.35622 0.28497 0.33585 0.66154 0.60047 0.37657 0.26461 0.80402 0.44781 0.42746 0.18319 0.87527 0.27479 0.45798 0.0916 0.89562 0.0916 0.43763 0 0.88544-0.0916 0.44781-0.10178 0.87526-0.27479 0.42746-0.1832 0.80402-0.44781 0.37657-0.26462 0.66154-0.60047 0.14249-0.17302 0.26462-0.35622 0.12213-0.18319 0.26461-0.35621 0.14249-0.17302 0.26462-0.26461 0.12212-0.0916 0.35621-0.0916zm-7.3074-4.1015-2.1882-3.6537h-2.1983l2.1983 3.6537zm9.516 0-2.1983-3.6537h-2.1882l2.1882 3.6537z"/><path d="m124.86 186.13v2.3408l-6.5238 3.155 6.5136 3.155 0.0102 2.3306-9.0274-4.4984v-1.9948z" stop-color="#000000"/><path d="m133.24 184.66h1.5877l-7.6738 17.373h-1.5877z" stop-color="#000000"/><path d="m137.45 185.6 1.9134-0.1832v2.8599h1.9642v1.7098h-1.9642v4.5392q0 1.2009 0.0611 1.5979 0.0611 0.38675 0.36639 0.64119 0.30533 0.24426 1.0178 0.24426 0.37657 0 0.85491-0.0713v1.6895q-0.85491 0.18319-1.5877 0.18319-1.1908 0-1.8218-0.45799-0.631-0.46816-0.80402-1.262-0.17302-0.79385-0.17302-2.4222v-4.6816h-1.3332v-1.7098h1.3943z" stop-color="#000000"/><path d="m145.03 191.19-2.0457-0.25444q0.20355-1.374 1.262-2.1373 1.0686-0.76331 2.6156-0.76331 1.3841 0 2.2085 0.55976 0.83455 0.54959 1.0483 1.3129 0.21372 0.76331 0.21372 2.3103v3.501q0 2.1271 0.1832 2.8395h-2.005q-0.1323-0.55976-0.1323-1.7098-0.96687 1.9642-2.8904 1.9642-1.3027 0-2.0966-0.79384-0.78367-0.80402-0.78367-2.178 0-1.6793 1.1501-2.6563 1.1602-0.97704 4.0099-0.97704 0.14248 0 0.44781 0.0102v-0.41728q0-1.0992-0.33586-1.6589-0.32568-0.55976-1.1806-0.55976-1.3943 0-1.6691 1.608zm3.1856 2.3612q-0.4071-0.0407-0.62083-0.0407-2.7683 0-2.7683 2.1678 0 1.5775 1.374 1.5775 0.80403 0 1.4045-0.85491 0.61065-0.85491 0.61065-2.351z" stop-color="#000000"/><path d="m152.71 184.66h2.1067v4.7936q0.9058-1.3638 2.3917-1.3638 1.608 0 2.5342 1.374 0.93633 1.3638 0.93633 3.6842 0 5.618-3.8064 5.618-1.7912 0-2.4935-1.608-0.23408 0.58012-0.46816 1.3943h-1.201zm2.1067 9.5465q0 2.9616 1.8116 2.9616 0.93633 0 1.3638-0.89562t0.42745-3.0024q0-2.0253-0.42745-2.8192-0.42745-0.80402-1.3231-0.80402-0.78367 0-1.3231 0.71242-0.52923 0.71243-0.52923 1.9236z" stop-color="#000000"/><path d="m162.66 184.66h2.1271v13.892h-2.1271z" stop-color="#000000"/><path d="m174.75 193.73h-5.8113q0 2.0864 0.55976 2.7886 0.56994 0.69207 1.4248 0.69207 1.4248 0 1.8014-1.9236l1.9337 0.25444q-0.76332 3.267-3.8064 3.267-1.8625 0-2.9718-1.3332-1.1094-1.3332-1.1094-3.9082 0-2.6461 1.1195-4.0914 1.1195-1.4452 2.9922-1.4452 1.3129 0 2.2085 0.7226t1.262 1.9032q0.36639 1.1704 0.39692 3.0736zm-2.1678-1.435q0-2.7174-1.7709-2.7174-1.6589 0-1.8218 2.7174z" stop-color="#000000"/><path d="m176.28 197.11v-2.3408l6.534-3.155-6.5238-3.1652-0.0102-2.3205 9.0274 4.4984v1.9948z" stop-color="#000000"/></g><g stop-color="#000000" aria-label='var tableau = ["😎"]'><path d="m24.502 117.09h2.0864l1.9235 7.3787 1.8828-7.3787h1.8421l-2.9108 10.279h-1.8828z" stop-color="#000000"/><path d="m35.168 120-2.0457-0.25444q0.20355-1.374 1.262-2.1373 1.0686-0.76332 2.6156-0.76332 1.3841 0 2.2085 0.55977 0.83455 0.54958 1.0483 1.3129 0.21373 0.76331 0.21373 2.3103v3.5011q0 2.1271 0.1832 2.8395h-2.005q-0.13231-0.55976-0.13231-1.7098-0.96686 1.9643-2.8904 1.9643-1.3027 0-2.0966-0.79385-0.78367-0.80402-0.78367-2.178 0-1.6793 1.1501-2.6563 1.1602-0.97704 4.0099-0.97704 0.14248 0 0.44781 0.0102v-0.41728q0-1.0992-0.33586-1.6589-0.32568-0.55976-1.1806-0.55976-1.3943 0-1.6691 1.608zm3.1856 2.3612q-0.4071-0.0407-0.62083-0.0407-2.7683 0-2.7683 2.1678 0 1.5775 1.374 1.5775 0.80402 0 1.4045-0.85491 0.61065-0.85491 0.61065-2.351z" stop-color="#000000"/><path d="m42.852 117.09h1.8727v2.3001q0.85491-2.5138 2.5647-2.5138 0.16284 0 0.38674 0.0305v2.2085q-0.26462-0.0305-0.42746-0.0305-2.2696 0-2.2696 3.0532v5.2312h-2.1271z" stop-color="#000000"/><path d="m52.795 114.41 1.9134-0.18319v2.8599h1.9643v1.7098h-1.9643v4.5392q0 1.201 0.06107 1.5979 0.06106 0.38674 0.36639 0.64118 0.30532 0.24426 1.0177 0.24426 0.37657 0 0.85491-0.0712v1.6895q-0.85491 0.1832-1.5877 0.1832-1.1908 0-1.8218-0.45799-0.631-0.46817-0.80402-1.262-0.17302-0.79384-0.17302-2.4222v-4.6816h-1.3333v-1.7098h1.3943z" stop-color="#000000"/><path d="m60.377 120-2.0457-0.25444q0.20355-1.374 1.262-2.1373 1.0686-0.76332 2.6156-0.76332 1.3841 0 2.2085 0.55977 0.83455 0.54958 1.0483 1.3129t0.21373 2.3103v3.5011q0 2.1271 0.1832 2.8395h-2.005q-0.13231-0.55976-0.13231-1.7098-0.96686 1.9643-2.8904 1.9643-1.3027 0-2.0966-0.79385-0.78367-0.80402-0.78367-2.178 0-1.6793 1.1501-2.6563 1.1602-0.97704 4.0099-0.97704 0.14248 0 0.44781 0.0102v-0.41728q0-1.0992-0.33586-1.6589-0.32568-0.55976-1.1806-0.55976-1.3943 0-1.6691 1.608zm3.1856 2.3612q-0.4071-0.0407-0.62083-0.0407-2.7683 0-2.7683 2.1678 0 1.5775 1.374 1.5775 0.80402 0 1.4045-0.85491 0.61065-0.85491 0.61065-2.351z" stop-color="#000000"/><path d="m68.051 113.47h2.1067v4.7936q0.9058-1.3638 2.3917-1.3638 1.608 0 2.5342 1.374 0.93633 1.3638 0.93633 3.6842 0 5.618-3.8064 5.618-1.7912 0-2.4935-1.608-0.23408 0.58012-0.46816 1.3943h-1.2009zm2.1067 9.5465q0 2.9616 1.8116 2.9616 0.93633 0 1.3638-0.89562 0.42745-0.89562 0.42745-3.0024 0-2.0253-0.42745-2.8192-0.42746-0.80403-1.3231-0.80403-0.78367 0-1.3231 0.71243-0.52923 0.71242-0.52923 1.9235z" stop-color="#000000"/><path d="m78.005 113.47h2.1271v13.892h-2.1271z" stop-color="#000000"/><path d="m90.096 122.54h-5.8113q0 2.0864 0.55976 2.7886 0.56994 0.69207 1.4248 0.69207 1.4248 0 1.8014-1.9236l1.9337 0.25444q-0.76331 3.267-3.8064 3.267-1.8625 0-2.9718-1.3333-1.1093-1.3332-1.1093-3.9082 0-2.6462 1.1195-4.0914 1.1195-1.4452 2.9922-1.4452 1.3129 0 2.2085 0.72261 0.89562 0.7226 1.262 1.9032 0.36639 1.1704 0.39692 3.0736zm-2.1678-1.435q0-2.7174-1.7709-2.7174-1.6589 0-1.8218 2.7174z" stop-color="#000000"/><path d="m93.759 120-2.0457-0.25444q0.20355-1.374 1.262-2.1373 1.0686-0.76332 2.6156-0.76332 1.3841 0 2.2085 0.55977 0.83455 0.54958 1.0483 1.3129t0.21373 2.3103v3.5011q0 2.1271 0.1832 2.8395h-2.005q-0.13231-0.55976-0.13231-1.7098-0.96686 1.9643-2.8904 1.9643-1.3027 0-2.0966-0.79385-0.78367-0.80402-0.78367-2.178 0-1.6793 1.1501-2.6563 1.1602-0.97704 4.0099-0.97704 0.14248 0 0.44781 0.0102v-0.41728q0-1.0992-0.33586-1.6589-0.32568-0.55976-1.1806-0.55976-1.3943 0-1.6691 1.608zm3.1856 2.3612q-0.4071-0.0407-0.62083-0.0407-2.7683 0-2.7683 2.1678 0 1.5775 1.374 1.5775 0.80402 0 1.4045-0.85491 0.61065-0.85491 0.61065-2.351z" stop-color="#000000"/><path d="m101.37 117.09h2.1271v6.534q0 1.3638 0.22391 1.832 0.2239 0.45799 0.98722 0.45799 0.9465 0 1.3231-0.82438t0.37657-3.0532v-4.9463h2.1169v10.279h-1.9439v-1.547q-0.82437 1.8014-2.6156 1.8014-0.91598 0-1.5063-0.38675-0.58012-0.38674-0.83455-1.0992-0.25444-0.71242-0.25444-2.4731z" stop-color="#000000"/><path d="m123.25 119.83h-8.5186v-1.6895h8.5186zm0 2.8599h-8.5186v-1.6895h8.5186z" stop-color="#000000"/><path d="m129.71 113.47h3.6028v1.1704h-1.6284v15.032h1.6284v1.1704h-3.6028z" stop-color="#000000"/><path d="m136.19 113.47h2.1373l-0.32568 5.6994h-1.4757zm3.1957 0h2.1373l-0.32568 5.6994h-1.4859z" stop-color="#000000"/><path d="m170.2 113.46v1.4656q0 0.14248-0.0611 0.27479-0.0509 0.1323-0.15266 0.24426-0.10178 0.10177-0.23408 0.17301-0.12213 0.0611-0.26462 0.0611-0.0407 0-0.0712 0-0.0305-0.0102-0.0712-0.0204 0.42745 1.0483 0.64118 2.1576 0.21373 1.0992 0.21373 2.2289 0 1.6182-0.41728 3.1143-0.41728 1.4961-1.1806 2.7988-0.76331 1.2926-1.832 2.3612-1.0686 1.0686-2.3714 1.832-1.2925 0.76331-2.7886 1.1806-1.4961 0.41728-3.1143 0.41728t-3.1143-0.41728-2.7988-1.1806q-1.2925-0.76331-2.3612-1.832-1.0686-1.0686-1.8319-2.3612-0.76332-1.3027-1.1806-2.7988-0.41728-1.4961-0.41728-3.1143 0-1.1297 0.21373-2.2289 0.21372-1.1093 0.64118-2.1576h-0.0509q-0.32568 0-0.56994-0.18319-0.23408-0.19337-0.23408-0.54958v-1.4656h2.0253q0.82438-1.201 1.893-2.1474 1.0686-0.94651 2.3103-1.608 1.2518-0.66153 2.636-1.0076 1.3841-0.35621 2.8395-0.35621t2.8395 0.35621q1.3841 0.34604 2.6258 1.0076 1.2518 0.66154 2.3205 1.608 1.0686 0.9465 1.893 2.1474zm-11.704 16.823q1.4147 0 2.7174-0.36639 1.3129-0.36639 2.4528-1.0381 1.1399-0.66153 2.066-1.5877 0.93633-0.93633 1.5979-2.0762 0.67172-1.1399 1.0381-2.4426 0.36639-1.3129 0.36639-2.7276 0-1.0686-0.22391-2.1067-0.21372-1.0381-0.64118-2.0151l-1.3129 2.5749q-0.11196 0.22391-0.26462 0.4987-0.14248 0.26462-0.32568 0.4987-0.18319 0.23408-0.4071 0.39692-0.21373 0.15266-0.47834 0.15266h-3.6639q-0.30532 0-0.56994-0.11195-0.26461-0.12213-0.46816-0.3155-0.19337-0.20355-0.30533-0.46817-0.11195-0.26461-0.11195-0.56994v-0.73278q0-0.30532-0.12213-0.56993-0.11195-0.26462-0.3155-0.45799-0.19337-0.20355-0.45799-0.3155-0.26461-0.11196-0.56994-0.11196-0.30532 0-0.56994 0.11196-0.26461 0.11195-0.46816 0.3155-0.19337 0.19337-0.3155 0.45799-0.11196 0.26461-0.11196 0.56993v0.73278q0 0.30533-0.12213 0.58012-0.11195 0.26462-0.3155 0.46817-0.19337 0.19337-0.45798 0.30532-0.26462 0.11195-0.56994 0.11195h-3.6537q-0.0916 0-0.20355-0.0814-0.11196-0.0916-0.21373-0.21372-0.10178-0.12213-0.19337-0.24426-0.0814-0.12213-0.12213-0.19338-0.19337-0.29514-0.36639-0.59029-0.17302-0.30533-0.34604-0.60047-0.32568-0.56994-0.67171-1.1195-0.33586-0.54958-0.66154-1.1093-0.43763 0.98721-0.66153 2.0355-0.21373 1.0381-0.21373 2.1169 0 1.4147 0.36639 2.7276 0.36639 1.3027 1.0279 2.4426 0.67172 1.1399 1.5979 2.0762 0.93633 0.92615 2.0762 1.5877 1.1399 0.67172 2.4426 1.0381 1.3129 0.36639 2.7276 0.36639zm0-20.477q-1.1399 0-2.2289 0.24426t-2.0966 0.71242q-0.99739 0.46817-1.893 1.1501t-1.6284 1.547h5.6383l0.73278 0.73278h2.9515l0.7226-0.73278h5.6485q-0.73278-0.86509-1.6284-1.547t-1.9032-1.1501q-0.9974-0.46816-2.0864-0.71242t-2.2289-0.24426zm4.3763 12.875q0.29515 0 0.50888 0.22391 0.2239 0.21372 0.2239 0.50887 0 0.11195-0.0305 0.19337-0.0203 0.0814-0.0712 0.1832-0.34604 0.65136-0.9058 1.1806-0.54958 0.51905-1.2213 0.89562-0.67171 0.36639-1.4147 0.56994-0.74296 0.19337-1.4656 0.19337t-1.4656-0.19337q-0.74295-0.20355-1.4248-0.56994-0.67172-0.37657-1.2315-0.89562-0.54958-0.52923-0.89562-1.1806-0.0509-0.10178-0.0814-0.1832-0.0204-0.0814-0.0204-0.19337 0-0.29515 0.21372-0.50887 0.21373-0.22391 0.50888-0.22391 0.2239 0 0.35621 0.10178 0.13231 0.0916 0.27479 0.25444 0.14249 0.17301 0.26462 0.35621 0.12213 0.18319 0.26461 0.35621 0.28497 0.33586 0.66154 0.60047 0.37657 0.26462 0.80402 0.44781 0.42745 0.1832 0.87526 0.27479 0.45799 0.0916 0.89562 0.0916 0.43764 0 0.88544-0.0916 0.44781-0.10177 0.87527-0.27479 0.42745-0.18319 0.80402-0.44781 0.37657-0.26461 0.66154-0.60047 0.14248-0.17302 0.26461-0.35621 0.12213-0.1832 0.26462-0.35621 0.14248-0.17302 0.26461-0.26462t0.35621-0.0916zm-7.3074-4.1015-2.1882-3.6537h-2.1983l2.1983 3.6537zm9.516 0-2.1983-3.6537h-2.1882l2.1882 3.6537z" stop-color="#000000"/><path d="m175.46 113.47h2.1373l-0.32568 5.6994h-1.4757zm3.1957 0h2.1373l-0.32568 5.6994h-1.4859z" stop-color="#000000"/><path d="m187.29 130.85h-3.6028v-1.1704h1.6386v-15.032h-1.6386v-1.1704h3.6028z" stop-color="#000000"/></g><path d="m85.407 138.37h42.599v17.273h10.418l-31.718 17.273-33.338-17.273h12.039z" stop-color="#000000"/></g></g></svg>
